<?xml version="1.0" encoding="UTF-8" standalone="no"?>
<svg width="256" height="256" viewBox="0 0 256 256" version="1.1" id="svg1" xmlns="http://www.w3.org/2000/svg" xmlns:svg="http://www.w3.org/2000/svg">
  <path
     d="M 75.998047,48.787109 H 58.175781 l -32.958984,0.488282 q -1.953125,0 -2.441406,-0.488282 Q 22.40918,48.298828 22.40918,46.589844 V 25.47168 q 0,-1.953125 0.488281,-2.319336 0.488281,-0.366211 2.319336,-0.366211 l 32.958984,0.488281 H 199.5332 l 33.08106,-0.488281 q 1.95312,0 2.31933,0.488281 0.36621,0.488281 0.36621,2.197266 v 21.118164 q 0,1.953125 -0.48828,2.319336 -0.48828,0.366211 -2.19726,0.366211 L 199.5332,48.787109 H 184.39648 V 187.21484 l 0.36622,43.09082 q 0,1.95313 -0.48829,2.31934 -0.36621,0.36621 -2.19726,0.36621 h -23.68164 q -1.95313,0 -2.31934,-0.48828 -0.36621,-0.48828 -0.36621,-2.19727 l 0.48828,-43.09082 V 48.787109 h -51.3916 v 42.96875 q 0,60.424801 -16.235351,91.430661 -14.038086,27.22168 -48.339844,48.46192 -4.394531,2.80761 -5.493164,2.80761 -1.586914,0 -4.760742,-5.7373 Q 23.751953,218.2207 15.939453,212.23926 53.292969,192.70801 65.62207,164.14355 75.998047,140.0957 75.998047,92.976562 Z"
     id="text1"
     style="font-size:250px;font-family:'Yu Gothic UI Semibold';fill:#afafaf"
     aria-label="丌" />
</svg>
