<svg width="576" height="576" viewBox="0 0 18 18" xmlns="http://www.w3.org/2000/svg" shape-rendering="crispEdges">
  <!-- Made by Justype -->
  <path fill="#474d5d" d="M10 1h1v1h-1z M11 1h1v1h-1z M12 1h1v1h-1z M9 2h1v1h-1z M10 2h1v1h-1z M11 2h1v1h-1z M12 2h1v1h-1z M13 2h1v1h-1z M8 3h1v1h-1z M9 3h1v1h-1z M10 3h1v1h-1z M11 3h1v1h-1z M13 3h1v1h-1z M14 3h1v1h-1z M8 4h1v1h-1z M9 4h1v1h-1z M10 4h1v1h-1z M5 5h1v1h-1z M6 5h1v1h-1z M9 5h1v1h-1z M12 5h1v1h-1z M13 5h1v1h-1z M3 6h1v1h-1z M4 6h1v1h-1z M5 6h1v1h-1z M6 6h1v1h-1z M12 6h1v1h-1z M13 6h1v1h-1z M14 6h1v1h-1z M2 7h1v1h-1z M3 7h1v1h-1z M14 7h1v1h-1z M15 7h1v1h-1z M1 8h1v1h-1z M2 8h1v1h-1z M15 8h1v1h-1z M16 8h1v1h-1z M1 9h1v1h-1z M2 9h1v1h-1z M15 9h1v1h-1z M16 9h1v1h-1z M2 10h1v1h-1z M15 10h1v1h-1z M12 14h1v1h-1z M5 15h1v1h-1z M6 15h1v1h-1z M8 15h1v1h-1z M10 15h1v1h-1z M11 15h1v1h-1z M12 15h1v1h-1z M4 16h1v1h-1z M5 16h1v1h-1z M6 16h1v1h-1z M10 16h1v1h-1z M11 16h1v1h-1z M12 16h1v1h-1z M13 16h1v1h-1z M3 17h1v1h-1z M4 17h1v1h-1z M5 17h1v1h-1z M6 17h1v1h-1z M7 17h1v1h-1z M8 17h1v1h-1z M9 17h1v1h-1z M10 17h1v1h-1z M11 17h1v1h-1z M12 17h1v1h-1z M13 17h1v1h-1z M14 17h1v1h-1z"/>
  <path fill="#ff3d3d" d="M7 4h1v1h-1z M11 4h1v1h-1z M7 5h1v1h-1z M8 5h1v1h-1z M10 5h1v1h-1z M11 5h1v1h-1z M7 6h1v1h-1z M8 6h1v1h-1z M9 6h1v1h-1z M10 6h1v1h-1z M11 6h1v1h-1z M7 15h1v1h-1z M9 15h1v1h-1z M7 16h1v1h-1z M8 16h1v1h-1z M9 16h1v1h-1z"/>
  <path fill="#ffb72a" d="M4 7h1v1h-1z M5 7h1v1h-1z M6 7h1v1h-1z M7 7h1v1h-1z M8 7h1v1h-1z M9 7h1v1h-1z M10 7h1v1h-1z M11 7h1v1h-1z M12 7h1v1h-1z M13 7h1v1h-1z M3 8h1v1h-1z M4 8h1v1h-1z M5 8h1v1h-1z M6 8h1v1h-1z M7 8h1v1h-1z M8 8h1v1h-1z M9 8h1v1h-1z M10 8h1v1h-1z M11 8h1v1h-1z M12 8h1v1h-1z M13 8h1v1h-1z M14 8h1v1h-1z M3 9h1v1h-1z M4 9h1v1h-1z M13 9h1v1h-1z M14 9h1v1h-1z M3 10h1v1h-1z M4 10h1v1h-1z M13 10h1v1h-1z M14 10h1v1h-1z M3 11h1v1h-1z M4 11h1v1h-1z M13 11h1v1h-1z M14 11h1v1h-1z M3 12h1v1h-1z M13 12h1v1h-1z M14 12h1v1h-1z M13 13h1v1h-1z M13 14h1v1h-1z"/>
  <path fill="#fed0b1" d="M5 9h1v1h-1z M6 9h1v1h-1z M7 9h1v1h-1z M8 9h1v1h-1z M9 9h1v1h-1z M10 9h1v1h-1z M11 9h1v1h-1z M12 9h1v1h-1z M5 10h1v1h-1z M7 10h1v1h-1z M8 10h1v1h-1z M9 10h1v1h-1z M11 10h1v1h-1z M12 10h1v1h-1z M5 11h1v1h-1z M7 11h1v1h-1z M8 11h1v1h-1z M9 11h1v1h-1z M11 11h1v1h-1z M12 11h1v1h-1z M4 12h1v1h-1z M6 12h1v1h-1z M7 12h1v1h-1z M8 12h1v1h-1z M9 12h1v1h-1z M10 12h1v1h-1z M12 12h1v1h-1z M4 13h1v1h-1z M5 13h1v1h-1z M6 13h1v1h-1z M10 13h1v1h-1z M11 13h1v1h-1z M12 13h1v1h-1z"/>
  <path fill="#25bfe2" d="M6 10h1v1h-1z M10 10h1v1h-1z M6 11h1v1h-1z M10 11h1v1h-1z"/>
  <path fill="#ff6969" d="M5 12h1v1h-1z M11 12h1v1h-1z M7 13h1v1h-1z M8 13h1v1h-1z M9 13h1v1h-1z"/>
  <path fill="#f4c4a7" d="M5 14h1v1h-1z M6 14h1v1h-1z M7 14h1v1h-1z M8 14h1v1h-1z M9 14h1v1h-1z M10 14h1v1h-1z M11 14h1v1h-1z"/>
</svg>