<svg width="512" height="512" viewBox="0 0 16 16" xmlns="http://www.w3.org/2000/svg" shape-rendering="crispEdges">
  <!-- Made by Justype -->
  <path fill="#474d5d" d="M9 0 h3 v1 h-3 Z M8 1 h5 v1 h-5 Z M7 2 h4 v1 h-4 Z M12 2 h2 v1 h-2 Z M7 3 h3 v1 h-3 Z M4 4 h2 v1 h-2 Z M8 4 h1 v1 h-1 Z M11 4 h2 v1 h-2 Z M2 5 h4 v1 h-4 Z M11 5 h3 v1 h-3 Z M1 6 h2 v1 h-2 Z M13 6 h2 v1 h-2 Z M0 7 h2 v2 h-2 Z M14 7 h2 v2 h-2 Z M1 9 h1 v1 h-1 Z M14 9 h1 v1 h-1 Z M11 13 h1 v1 h-1 Z M4 14 h2 v1 h-2 Z M7 14 h1 v1 h-1 Z M9 14 h3 v1 h-3 Z M3 15 h3 v1 h-3 Z M9 15 h4 v1 h-4 Z"/>
  <path fill="#ff3d3d" d="M6 3 h1 v1 h-1 Z M10 3 h1 v1 h-1 Z M6 4 h2 v1 h-2 Z M9 4 h2 v1 h-2 Z M6 5 h5 v1 h-5 Z M6 14 h1 v1 h-1 Z M8 14 h1 v1 h-1 Z M6 15 h3 v1 h-3 Z"/>
  <path fill="#ffb72a" d="M3 6 h10 v1 h-10 Z M2 7 h12 v1 h-12 Z M2 8 h2 v3 h-2 Z M12 8 h2 v4 h-2 Z M2 11 h1 v1 h-1 Z M12 12 h1 v2 h-1 Z"/>
  <path fill="#fed0b1" d="M4 8 h8 v1 h-8 Z M4 9 h1 v2 h-1 Z M6 9 h3 v2 h-3 Z M10 9 h2 v2 h-2 Z M3 11 h1 v1 h-1 Z M5 11 h5 v1 h-5 Z M11 11 h1 v1 h-1 Z M3 12 h3 v1 h-3 Z M9 12 h3 v1 h-3 Z"/>
  <path fill="#25bfe2" d="M5 9 h1 v2 h-1 Z M9 9 h1 v2 h-1 Z"/>
  <path fill="#ff6969" d="M4 11 h1 v1 h-1 Z M10 11 h1 v1 h-1 Z M6 12 h3 v1 h-3 Z"/>
  <path fill="#f4c4a7" d="M4 13 h7 v1 h-7 Z"/>
</svg>